<svg width="175" height="32" viewBox="0 0 175 32" fill="none" xmlns="http://www.w3.org/2000/svg">
<mask id="mask0_280_5573" style="mask-type:alpha" maskUnits="userSpaceOnUse" x="0" y="0" width="31" height="32">
<rect y="0.590393" width="30.8192" height="30.8192" fill="#D9D9D9"/>
</mask>
<g mask="url(#mask0_280_5573)">
<path d="M4.33411 28.3598V21.6502C4.33411 20.7896 4.62411 20.0661 5.20411 19.4797C5.78411 18.8934 6.50001 18.6003 7.35182 18.6003H23.4677C24.3283 18.6003 25.0518 18.8934 25.6382 19.4797C26.2244 20.0661 26.5175 20.7896 26.5175 21.6502V28.3598H4.33411ZM11.1455 17.3162C9.25843 17.3162 7.6461 16.6522 6.30846 15.3242C4.97082 13.996 4.302 12.3801 4.302 10.4766C4.302 8.57287 4.97082 6.95219 6.30846 5.61455C7.6461 4.27691 9.25843 3.60809 11.1455 3.60809H19.6474C21.5595 3.60809 23.1825 4.27434 24.5165 5.60685C25.8505 6.93935 26.5175 8.56057 26.5175 10.4705C26.5175 12.3804 25.8505 13.9989 24.5165 15.3258C23.1825 16.6527 21.5595 17.3162 19.6474 17.3162H11.1455ZM11.1458 11.8586C11.5486 11.8586 11.8837 11.7221 12.1513 11.449C12.4188 11.1757 12.5526 10.8493 12.5526 10.4699C12.5526 10.0902 12.4169 9.76123 12.1455 9.483C11.8743 9.20477 11.5426 9.06566 11.1503 9.06566C10.7582 9.06566 10.4284 9.20435 10.1609 9.48172C9.89333 9.7593 9.75957 10.091 9.75957 10.4769C9.75957 10.863 9.8959 11.1898 10.1686 11.4574C10.4412 11.7249 10.767 11.8586 11.1458 11.8586ZM19.6557 11.8586C20.0354 11.8586 20.3644 11.7221 20.6426 11.449C20.9208 11.1757 21.0599 10.8493 21.0599 10.4699C21.0599 10.0902 20.9212 9.76123 20.6439 9.483C20.3663 9.20477 20.0346 9.06566 19.6487 9.06566C19.2626 9.06566 18.9358 9.20435 18.6682 9.48172C18.4007 9.7593 18.2669 10.091 18.2669 10.4769C18.2669 10.863 18.4035 11.1898 18.6766 11.4574C18.9499 11.7249 19.2763 11.8586 19.6557 11.8586Z" fill="#2D9CDB"/>
</g>
<path d="M43.2599 23.7055C42.1641 23.7055 41.1437 23.5274 40.1985 23.1713C39.2671 22.8014 38.4521 22.2878 37.7535 21.6303C37.0687 20.9591 36.5345 20.1715 36.151 19.2675C35.7674 18.3635 35.5757 17.3773 35.5757 16.3089C35.5757 15.2405 35.7674 14.2542 36.151 13.3502C36.5345 12.4462 37.0755 11.6654 37.7741 11.008C38.4727 10.3368 39.2877 9.82313 40.2191 9.467C41.1505 9.09717 42.171 8.91225 43.2805 8.91225C44.4584 8.91225 45.5337 9.11771 46.5062 9.52863C47.4787 9.92586 48.3006 10.5217 48.9717 11.3161L47.2459 12.9393C46.7254 12.3777 46.1432 11.9599 45.4994 11.686C44.8557 11.3983 44.1571 11.2545 43.4037 11.2545C42.6504 11.2545 41.9587 11.3778 41.3286 11.6243C40.7122 11.8709 40.1711 12.2202 39.7054 12.6722C39.2534 13.1242 38.8973 13.6584 38.637 14.2748C38.3905 14.8912 38.2672 15.5692 38.2672 16.3089C38.2672 17.0485 38.3905 17.7265 38.637 18.3429C38.8973 18.9593 39.2534 19.4935 39.7054 19.9455C40.1711 20.3975 40.7122 20.7468 41.3286 20.9934C41.9587 21.2399 42.6504 21.3632 43.4037 21.3632C44.1571 21.3632 44.8557 21.2262 45.4994 20.9523C46.1432 20.6646 46.7254 20.2332 47.2459 19.6579L48.9717 21.3016C48.3006 22.0823 47.4787 22.6782 46.5062 23.0891C45.5337 23.5 44.4516 23.7055 43.2599 23.7055ZM52.1885 27.6298C51.6543 27.6298 51.1201 27.5407 50.5859 27.3627C50.0517 27.1846 49.6065 26.9381 49.2504 26.623L50.2777 24.7328C50.5379 24.9656 50.8324 25.1505 51.1612 25.2875C51.4899 25.4245 51.8255 25.493 52.1679 25.493C52.6337 25.493 53.0103 25.3765 53.298 25.1437C53.5856 24.9108 53.8527 24.5205 54.0993 23.9726L54.7362 22.5343L54.9417 22.2261L59.092 12.5284H61.5575L56.421 24.3835C56.0786 25.2053 55.695 25.856 55.2704 26.3354C54.8595 26.8148 54.3938 27.1504 53.8733 27.3421C53.3665 27.5339 52.8049 27.6298 52.1885 27.6298ZM54.4486 23.8904L49.4969 12.5284H52.1679L56.195 22.0001L54.4486 23.8904ZM69.2443 23.6438C68.3129 23.6438 67.4842 23.4384 66.7583 23.0274C66.0323 22.6165 65.457 22.0001 65.0324 21.1783C64.6215 20.3427 64.416 19.288 64.416 18.0142C64.416 16.7266 64.6283 15.6719 65.0529 14.8501C65.4912 14.0282 66.0734 13.4187 66.7994 13.0215C67.539 12.6106 68.354 12.4051 69.2443 12.4051C70.3264 12.4051 71.2784 12.6379 72.1003 13.1037C72.9358 13.5694 73.5933 14.22 74.0727 15.0555C74.5658 15.8911 74.8123 16.8773 74.8123 18.0142C74.8123 19.1511 74.5658 20.1373 74.0727 20.9728C73.5933 21.8084 72.9358 22.4658 72.1003 22.9453C71.2784 23.411 70.3264 23.6438 69.2443 23.6438ZM63.1627 23.5V8.25477H65.731V15.0761L65.5255 17.9936L65.6077 20.9112V23.5H63.1627ZM68.9567 21.4454C69.5731 21.4454 70.121 21.3084 70.6004 21.0345C71.0935 20.7605 71.4839 20.3633 71.7715 19.8428C72.0592 19.3223 72.203 18.7128 72.203 18.0142C72.203 17.3019 72.0592 16.6924 71.7715 16.1856C71.4839 15.6651 71.0935 15.2679 70.6004 14.9939C70.121 14.72 69.5731 14.583 68.9567 14.583C68.3403 14.583 67.7856 14.72 67.2925 14.9939C66.7994 15.2679 66.409 15.6651 66.1213 16.1856C65.8337 16.6924 65.6899 17.3019 65.6899 18.0142C65.6899 18.7128 65.8337 19.3223 66.1213 19.8428C66.409 20.3633 66.7994 20.7605 67.2925 21.0345C67.7856 21.3084 68.3403 21.4454 68.9567 21.4454ZM82.1791 23.6438C81.0559 23.6438 80.056 23.4041 79.1794 22.9247C78.3027 22.4316 77.611 21.7604 77.1042 20.9112C76.5974 20.0619 76.344 19.0963 76.344 18.0142C76.344 16.9184 76.5974 15.9527 77.1042 15.1172C77.611 14.2679 78.3027 13.6036 79.1794 13.1242C80.056 12.6448 81.0559 12.4051 82.1791 12.4051C83.316 12.4051 84.3227 12.6448 85.1994 13.1242C86.0897 13.6036 86.7814 14.2611 87.2745 15.0966C87.7813 15.9322 88.0347 16.9047 88.0347 18.0142C88.0347 19.0963 87.7813 20.0619 87.2745 20.9112C86.7814 21.7604 86.0897 22.4316 85.1994 22.9247C84.3227 23.4041 83.316 23.6438 82.1791 23.6438ZM82.1791 21.4454C82.8092 21.4454 83.3708 21.3084 83.8639 21.0345C84.357 20.7605 84.7405 20.3633 85.0145 19.8428C85.3021 19.3223 85.4459 18.7128 85.4459 18.0142C85.4459 17.3019 85.3021 16.6924 85.0145 16.1856C84.7405 15.6651 84.357 15.2679 83.8639 14.9939C83.3708 14.72 82.816 14.583 82.1996 14.583C81.5696 14.583 81.008 14.72 80.5149 14.9939C80.0354 15.2679 79.6519 15.6651 79.3643 16.1856C79.0766 16.6924 78.9328 17.3019 78.9328 18.0142C78.9328 18.7128 79.0766 19.3223 79.3643 19.8428C79.6519 20.3633 80.0354 20.7605 80.5149 21.0345C81.008 21.3084 81.5627 21.4454 82.1791 21.4454ZM90.4906 23.5V12.5284H92.9356V15.5486L92.648 14.6652C92.9767 13.9255 93.4904 13.3639 94.1889 12.9804C94.9012 12.5969 95.7847 12.4051 96.8394 12.4051V14.8501C96.7298 14.8227 96.6271 14.809 96.5312 14.809C96.4353 14.7953 96.3394 14.7884 96.2436 14.7884C95.271 14.7884 94.4971 15.0761 93.9218 15.6514C93.3465 16.213 93.0589 17.0554 93.0589 18.1786V23.5H90.4906ZM103.89 27.6298C102.876 27.6298 101.883 27.4928 100.911 27.2188C99.9519 26.9586 99.1643 26.5751 98.5479 26.0683L99.6985 24.1369C100.178 24.5342 100.781 24.8492 101.507 25.0821C102.246 25.3286 102.993 25.4519 103.746 25.4519C104.951 25.4519 105.835 25.1711 106.397 24.6095C106.958 24.0616 107.239 23.2329 107.239 22.1234V20.1715L107.444 17.6854L107.362 15.1994V12.5284H109.807V21.8358C109.807 23.8219 109.3 25.2807 108.287 26.2121C107.273 27.1572 105.808 27.6298 103.89 27.6298ZM103.561 23.0069C102.52 23.0069 101.575 22.7877 100.726 22.3494C99.8903 21.8974 99.226 21.2742 98.7328 20.4797C98.2534 19.6853 98.0137 18.7538 98.0137 17.6854C98.0137 16.6307 98.2534 15.7062 98.7328 14.9117C99.226 14.1173 99.8903 13.5009 100.726 13.0626C101.575 12.6243 102.52 12.4051 103.561 12.4051C104.493 12.4051 105.328 12.59 106.068 12.9598C106.807 13.3297 107.396 13.905 107.835 14.6857C108.287 15.4665 108.513 16.4664 108.513 17.6854C108.513 18.9045 108.287 19.9113 107.835 20.7057C107.396 21.4865 106.807 22.0686 106.068 22.4521C105.328 22.822 104.493 23.0069 103.561 23.0069ZM103.952 20.829C104.595 20.829 105.171 20.6989 105.677 20.4386C106.184 20.1647 106.575 19.7948 106.849 19.3291C107.136 18.8497 107.28 18.3018 107.28 17.6854C107.28 17.0691 107.136 16.528 106.849 16.0623C106.575 15.5829 106.184 15.2199 105.677 14.9734C105.171 14.7131 104.595 14.583 103.952 14.583C103.308 14.583 102.726 14.7131 102.205 14.9734C101.698 15.2199 101.301 15.5829 101.013 16.0623C100.74 16.528 100.603 17.0691 100.603 17.6854C100.603 18.3018 100.74 18.8497 101.013 19.3291C101.301 19.7948 101.698 20.1647 102.205 20.4386C102.726 20.6989 103.308 20.829 103.952 20.829Z" fill="#2D9CDB"/>
<path d="M119.818 23.5V12.8777H115.606V9.11771H128.879V12.8777H124.667V23.5H119.818ZM135.076 23.7055C133.706 23.7055 132.508 23.4521 131.48 22.9453C130.467 22.4385 129.679 21.7467 129.117 20.8701C128.556 19.9798 128.275 18.9799 128.275 17.8704C128.275 16.7335 128.549 15.7267 129.097 14.8501C129.658 13.9734 130.419 13.2886 131.378 12.7955C132.35 12.3024 133.439 12.0558 134.644 12.0558C135.754 12.0558 136.774 12.275 137.706 12.7133C138.651 13.1516 139.404 13.8022 139.966 14.6652C140.541 15.5281 140.829 16.5965 140.829 17.8704C140.829 18.0347 140.822 18.2196 140.808 18.4251C140.794 18.6169 140.781 18.7949 140.767 18.9593H132.117V16.7198H138.302L136.555 17.3156C136.555 16.8773 136.473 16.5075 136.309 16.2061C136.158 15.8911 135.946 15.6514 135.672 15.487C135.398 15.3089 135.069 15.2199 134.685 15.2199C134.302 15.2199 133.966 15.3089 133.679 15.487C133.405 15.6514 133.192 15.8911 133.042 16.2061C132.891 16.5075 132.816 16.8773 132.816 17.3156V18.0142C132.816 18.4936 132.912 18.9045 133.103 19.247C133.295 19.5894 133.569 19.8496 133.925 20.0277C134.281 20.1921 134.713 20.2743 135.22 20.2743C135.74 20.2743 136.165 20.2058 136.493 20.0688C136.836 19.9318 137.192 19.7264 137.562 19.4524L139.986 21.8974C139.438 22.4864 138.76 22.9384 137.952 23.2534C137.158 23.5548 136.199 23.7055 135.076 23.7055ZM146.691 23.7055C145.732 23.7055 144.787 23.6027 143.856 23.3973C142.924 23.1918 142.171 22.9247 141.596 22.596L142.869 19.5346C143.404 19.8496 144.02 20.0962 144.719 20.2743C145.431 20.4523 146.123 20.5414 146.794 20.5414C147.355 20.5414 147.732 20.4934 147.924 20.3975C148.129 20.3017 148.232 20.1715 148.232 20.0072C148.232 19.8428 148.115 19.7264 147.883 19.6579C147.65 19.5757 147.342 19.5141 146.958 19.473C146.575 19.4319 146.15 19.3839 145.684 19.3291C145.232 19.2606 144.773 19.1648 144.308 19.0415C143.842 18.9182 143.417 18.7333 143.034 18.4867C142.65 18.2402 142.342 17.9115 142.109 17.5005C141.876 17.0759 141.76 16.5417 141.76 15.8979C141.76 15.1857 141.972 14.5419 142.397 13.9666C142.835 13.3913 143.479 12.9324 144.328 12.59C145.191 12.2339 146.253 12.0558 147.513 12.0558C148.335 12.0558 149.156 12.1311 149.978 12.2818C150.8 12.4325 151.506 12.6653 152.095 12.9804L150.821 16.0418C150.245 15.7267 149.677 15.5144 149.115 15.4048C148.568 15.2815 148.054 15.2199 147.574 15.2199C146.985 15.2199 146.581 15.2747 146.362 15.3843C146.157 15.4939 146.054 15.6171 146.054 15.7541C146.054 15.9185 146.17 16.0418 146.403 16.1239C146.636 16.2061 146.944 16.2678 147.328 16.3089C147.711 16.3499 148.129 16.4047 148.581 16.4732C149.047 16.528 149.506 16.6239 149.958 16.7609C150.424 16.8841 150.848 17.0691 151.232 17.3156C151.615 17.5622 151.923 17.8978 152.156 18.3224C152.389 18.7333 152.506 19.2606 152.506 19.9044C152.506 20.5756 152.293 21.2057 151.869 21.7947C151.444 22.37 150.8 22.8357 149.937 23.1918C149.074 23.5342 147.992 23.7055 146.691 23.7055ZM159.336 23.7055C157.788 23.7055 156.582 23.3356 155.72 22.596C154.857 21.8426 154.425 20.692 154.425 19.1442V9.7341H159.069V19.1031C159.069 19.4456 159.158 19.7127 159.336 19.9044C159.527 20.0962 159.76 20.1921 160.034 20.1921C160.431 20.1921 160.781 20.0893 161.082 19.8839L162.192 23.1096C161.835 23.3151 161.404 23.4658 160.897 23.5616C160.404 23.6575 159.884 23.7055 159.336 23.7055ZM152.884 16.2678V12.8777H161.37V16.2678H152.884ZM167.759 23.7055C166.8 23.7055 165.855 23.6027 164.923 23.3973C163.992 23.1918 163.239 22.9247 162.663 22.596L163.937 19.5346C164.471 19.8496 165.088 20.0962 165.786 20.2743C166.499 20.4523 167.19 20.5414 167.861 20.5414C168.423 20.5414 168.8 20.4934 168.992 20.3975C169.197 20.3017 169.3 20.1715 169.3 20.0072C169.3 19.8428 169.183 19.7264 168.95 19.6579C168.718 19.5757 168.409 19.5141 168.026 19.473C167.642 19.4319 167.218 19.3839 166.752 19.3291C166.3 19.2606 165.841 19.1648 165.375 19.0415C164.91 18.9182 164.485 18.7333 164.102 18.4867C163.718 18.2402 163.41 17.9115 163.177 17.5005C162.944 17.0759 162.828 16.5417 162.828 15.8979C162.828 15.1857 163.04 14.5419 163.465 13.9666C163.903 13.3913 164.547 12.9324 165.396 12.59C166.259 12.2339 167.32 12.0558 168.581 12.0558C169.402 12.0558 170.224 12.1311 171.046 12.2818C171.868 12.4325 172.573 12.6653 173.162 12.9804L171.889 16.0418C171.313 15.7267 170.745 15.5144 170.183 15.4048C169.635 15.2815 169.122 15.2199 168.642 15.2199C168.053 15.2199 167.649 15.2747 167.43 15.3843C167.225 15.4939 167.122 15.6171 167.122 15.7541C167.122 15.9185 167.238 16.0418 167.471 16.1239C167.704 16.2061 168.012 16.2678 168.396 16.3089C168.779 16.3499 169.197 16.4047 169.649 16.4732C170.115 16.528 170.574 16.6239 171.026 16.7609C171.491 16.8841 171.916 17.0691 172.299 17.3156C172.683 17.5622 172.991 17.8978 173.224 18.3224C173.457 18.7333 173.573 19.2606 173.573 19.9044C173.573 20.5756 173.361 21.2057 172.936 21.7947C172.512 22.37 171.868 22.8357 171.005 23.1918C170.142 23.5342 169.06 23.7055 167.759 23.7055Z" fill="#111111"/>
</svg>
